<svg width="693" height="245" viewBox="0 0 693 245" fill="none" xmlns="http://www.w3.org/2000/svg">
<path d="M100.66 6.04C99.2942 8.00266 98.3128 10.008 97.7155 12.056C97.2035 14.104 96.9475 16.7493 96.9475 19.992V55.704C96.9475 57.496 97.3315 58.9893 98.0995 60.184L99.2515 61.72L98.0995 63H84.7875L56.3715 13.976V46.232C56.3715 49.6453 56.6275 52.376 57.1395 54.424C57.7368 56.3867 58.7182 58.3067 60.0835 60.184L61.2355 61.72L60.0835 63H46.0035L45.1075 60.696C47.3262 60.0987 48.8622 59.544 49.7155 59.032C50.6542 58.52 51.2942 57.7947 51.6355 56.856C51.9768 55.9173 52.1475 54.424 52.1475 52.376V18.584C52.1475 14.8293 51.8062 12.0987 51.1235 10.392C50.4408 8.68533 48.9475 6.85066 46.6435 4.888L47.6675 3.224H64.3075L92.8515 52.632V13.848C92.8515 11.288 92.2968 9.496 91.1875 8.472C90.1635 7.448 87.9875 6.46666 84.6595 5.528L85.4275 3.224H100.66L101.812 4.632L100.66 6.04ZM123.73 34.712C121.938 35.736 119.804 36.248 117.33 36.248C115.538 36.248 114.13 35.736 113.106 34.712C112.082 33.6027 111.57 32.0667 111.57 30.104C111.57 27.2027 112.978 24.8987 115.794 23.192C118.695 21.4 122.45 20.504 127.058 20.504C132.519 20.504 136.786 21.6987 139.858 24.088C143.015 26.4773 144.594 29.72 144.594 33.816V55.96C144.594 58.3493 145.447 59.544 147.154 59.544C148.775 59.544 150.354 58.904 151.89 57.624L152.914 58.904C149.756 62.4027 146.002 64.152 141.65 64.152C139.09 64.152 137.127 63.512 135.762 62.232C134.482 60.952 133.714 58.9467 133.458 56.216H132.946C131.58 58.6907 129.746 60.6533 127.442 62.104C125.223 63.4693 122.663 64.152 119.762 64.152C116.519 64.152 113.916 63.1707 111.954 61.208C109.991 59.16 109.01 56.5147 109.01 53.272C109.01 49.6027 110.759 46.7013 114.258 44.568C117.756 42.4347 122.492 41.368 128.466 41.368C129.575 41.368 131.154 41.4533 133.202 41.624V35.224C133.202 31.0427 132.69 28.056 131.666 26.264C130.642 24.3867 128.978 23.448 126.674 23.448C125.052 23.448 123.772 23.96 122.833 24.984C121.895 26.008 121.426 27.3307 121.426 28.952C121.426 31.512 122.194 33.432 123.73 34.712ZM125.65 57.752C130.684 57.752 133.202 53.1867 133.202 44.056C128.935 44.056 125.735 44.7813 123.602 46.232C121.468 47.5973 120.402 49.56 120.402 52.12C120.402 53.8267 120.871 55.192 121.81 56.216C122.748 57.24 124.028 57.752 125.65 57.752ZM140.754 4.76C138.962 7.66133 137.255 9.88 135.634 11.416C134.012 12.952 132.348 13.72 130.642 13.72C129.703 13.72 128.892 13.592 128.21 13.336C127.612 13.08 126.844 12.6533 125.906 12.056C125.308 11.6293 124.711 11.288 124.114 11.032C123.516 10.6907 122.834 10.52 122.066 10.52C120.359 10.52 118.311 11.5867 115.922 13.72L113.874 11.8C115.666 8.89867 117.372 6.68 118.994 5.144C120.615 3.608 122.279 2.84 123.986 2.84C124.924 2.84 125.692 3.01066 126.29 3.352C126.972 3.608 127.74 4.03466 128.594 4.632C130.13 5.656 131.452 6.168 132.562 6.168C134.268 6.168 136.274 5.05866 138.578 2.84L140.754 4.76ZM155.632 42.392C155.632 35.6507 157.552 30.3173 161.392 26.392C165.317 22.4667 170.608 20.504 177.264 20.504C183.92 20.504 189.21 22.5093 193.136 26.52C197.061 30.4453 199.024 35.736 199.024 42.392C199.024 49.048 197.061 54.3387 193.136 58.264C189.21 62.1893 183.92 64.152 177.264 64.152C170.608 64.152 165.317 62.1893 161.392 58.264C157.552 54.3387 155.632 49.048 155.632 42.392ZM186.096 42.648C186.096 36.9307 185.285 32.28 183.664 28.696C182.042 25.0267 179.994 23.192 177.52 23.192C174.789 23.192 172.57 24.984 170.864 28.568C169.157 32.0667 168.304 36.6747 168.304 42.392C168.304 48.1947 169.072 52.8027 170.608 56.216C172.229 59.6293 174.362 61.336 177.008 61.336C179.653 61.336 181.829 59.6293 183.536 56.216C185.242 52.7173 186.096 48.1947 186.096 42.648ZM239.054 29.208C239.054 31.3413 239.864 33.0907 241.486 34.456C243.192 35.736 245.752 37.1867 249.166 38.808C251.982 40.1733 254.158 41.368 255.694 42.392C257.23 43.3307 258.552 44.6107 259.662 46.232C260.856 47.8533 261.454 49.7733 261.454 51.992C261.454 55.6613 259.704 58.6053 256.206 60.824C252.792 63.0427 248.184 64.152 242.382 64.152C238.03 64.152 234.446 63.384 231.63 61.848C228.814 60.2267 227.406 58.136 227.406 55.576C227.406 53.8693 228.046 52.4613 229.326 51.352C230.606 50.1573 232.184 49.56 234.062 49.56C235.512 49.56 236.963 49.8587 238.414 50.456C236.963 51.5653 236.238 53.3573 236.238 55.832C236.238 57.5387 236.835 58.8613 238.03 59.8C239.224 60.7387 240.675 61.208 242.382 61.208C244.344 61.208 246.008 60.696 247.374 59.672C248.824 58.648 249.55 57.1973 249.55 55.32C249.55 53.528 248.824 52.12 247.374 51.096C246.008 49.9867 243.832 48.7067 240.846 47.256C238.115 45.976 235.896 44.824 234.19 43.8C232.568 42.6907 231.16 41.24 229.966 39.448C228.771 37.656 228.174 35.48 228.174 32.92C228.174 29.08 229.795 26.0507 233.038 23.832C236.28 21.6133 240.376 20.504 245.326 20.504C249.678 20.504 253.219 21.3147 255.95 22.936C258.766 24.5573 260.174 26.648 260.174 29.208C260.174 31.1707 259.576 32.6213 258.382 33.56C257.187 34.4987 255.651 34.968 253.774 34.968C251.982 34.968 250.403 34.584 249.038 33.816C250.574 32.3653 251.342 30.5307 251.342 28.312C251.342 26.8613 250.787 25.7093 249.678 24.856C248.568 23.9173 247.118 23.448 245.326 23.448C243.363 23.448 241.827 24.0027 240.718 25.112C239.608 26.2213 239.054 27.5867 239.054 29.208ZM282.977 34.712C281.185 35.736 279.051 36.248 276.577 36.248C274.785 36.248 273.377 35.736 272.353 34.712C271.329 33.6027 270.817 32.0667 270.817 30.104C270.817 27.2027 272.225 24.8987 275.041 23.192C277.942 21.4 281.697 20.504 286.305 20.504C291.766 20.504 296.033 21.6987 299.104 24.088C302.262 26.4773 303.841 29.72 303.841 33.816V55.96C303.841 58.3493 304.694 59.544 306.401 59.544C308.022 59.544 309.601 58.904 311.137 57.624L312.161 58.904C309.003 62.4027 305.249 64.152 300.897 64.152C298.337 64.152 296.374 63.512 295.009 62.232C293.729 60.952 292.961 58.9467 292.705 56.216H292.193C290.827 58.6907 288.993 60.6533 286.689 62.104C284.47 63.4693 281.91 64.152 279.009 64.152C275.766 64.152 273.163 63.1707 271.201 61.208C269.238 59.16 268.257 56.5147 268.257 53.272C268.257 49.6027 270.006 46.7013 273.505 44.568C277.003 42.4347 281.739 41.368 287.713 41.368C288.822 41.368 290.401 41.4533 292.449 41.624V35.224C292.449 31.0427 291.937 28.056 290.913 26.264C289.889 24.3867 288.225 23.448 285.921 23.448C284.299 23.448 283.019 23.96 282.081 24.984C281.142 26.008 280.673 27.3307 280.673 28.952C280.673 31.512 281.441 33.432 282.977 34.712ZM284.897 57.752C289.931 57.752 292.449 53.1867 292.449 44.056C288.182 44.056 284.982 44.7813 282.849 46.232C280.715 47.5973 279.649 49.56 279.649 52.12C279.649 53.8267 280.118 55.192 281.057 56.216C281.995 57.24 283.275 57.752 284.897 57.752ZM341.375 20.504C344.788 20.504 347.86 21.4 350.591 23.192C353.407 24.8987 355.583 27.288 357.119 30.36C358.74 33.432 359.551 36.888 359.551 40.728C359.551 45.1653 358.484 49.176 356.351 52.76C354.303 56.2587 351.444 59.032 347.775 61.08C344.105 63.128 340.009 64.152 335.487 64.152C332.415 64.152 329.343 63.6827 326.271 62.744C323.199 61.8053 320.681 60.5253 318.719 58.904V8.344C318.719 7.66133 318.591 7.192 318.335 6.936C318.079 6.68 317.652 6.552 317.055 6.552H313.087L312.703 5.272C314.324 3.736 316.415 2.54133 318.975 1.688C321.62 0.749331 324.223 0.279999 326.783 0.279999C327.892 0.279999 328.745 0.535998 329.343 1.048C330.025 1.47466 330.367 2.11466 330.367 2.968V24.472C331.647 23.192 333.225 22.2107 335.103 21.528C337.065 20.8453 339.156 20.504 341.375 20.504ZM336.127 61.208C343.209 61.208 346.751 55.1067 346.751 42.904C346.751 36.8453 345.855 32.2373 344.062 29.08C342.356 25.8373 339.796 24.216 336.383 24.216C334.249 24.216 332.244 24.856 330.367 26.136V59.928C332.244 60.7813 334.164 61.208 336.127 61.208ZM389.955 59.928C392.429 59.928 394.605 59.5013 396.483 58.648C398.36 57.7093 400.195 56.1733 401.987 54.04L403.523 55.192C401.56 58.008 399.043 60.2267 395.971 61.848C392.984 63.384 389.699 64.152 386.115 64.152C382.189 64.152 378.648 63.2133 375.491 61.336C372.419 59.4587 369.987 56.8987 368.195 53.656C366.403 50.328 365.507 46.5733 365.507 42.392C365.507 35.736 367.512 30.4453 371.523 26.52C375.619 22.5093 381.037 20.504 387.779 20.504C392.557 20.504 396.44 21.656 399.427 23.96C402.499 26.1787 404.035 29.08 404.035 32.664C404.035 36.76 402.285 40.0453 398.787 42.52C395.373 44.9093 390.68 46.104 384.707 46.104C382.317 46.104 380.141 45.9333 378.179 45.592C378.605 50.0293 379.885 53.528 382.019 56.088C384.152 58.648 386.797 59.928 389.955 59.928ZM386.371 23.576C383.725 23.576 381.635 25.1973 380.099 28.44C378.648 31.5973 377.923 36.0347 377.923 41.752V43.8C378.861 43.8 380.013 43.7147 381.378 43.544C384.963 43.1173 387.693 41.9653 389.571 40.088C391.533 38.1253 392.515 35.5653 392.515 32.408C392.515 29.848 391.917 27.7573 390.723 26.136C389.613 24.4293 388.163 23.576 386.371 23.576ZM431.132 42.392C431.132 35.6507 433.052 30.3173 436.892 26.392C440.817 22.4667 446.108 20.504 452.764 20.504C459.42 20.504 464.71 22.5093 468.636 26.52C472.561 30.4453 474.524 35.736 474.524 42.392C474.524 49.048 472.561 54.3387 468.636 58.264C464.71 62.1893 459.42 64.152 452.764 64.152C446.108 64.152 440.817 62.1893 436.892 58.264C433.052 54.3387 431.132 49.048 431.132 42.392ZM461.596 42.648C461.596 36.9307 460.785 32.28 459.164 28.696C457.542 25.0267 455.494 23.192 453.02 23.192C450.289 23.192 448.07 24.984 446.364 28.568C444.657 32.0667 443.804 36.6747 443.804 42.392C443.804 48.1947 444.572 52.8027 446.108 56.216C447.729 59.6293 449.862 61.336 452.508 61.336C455.153 61.336 457.329 59.6293 459.036 56.216C460.742 52.7173 461.596 48.1947 461.596 42.648ZM531.066 56.728C528.932 59.288 526.671 61.1653 524.282 62.36C521.892 63.5547 519.247 64.152 516.346 64.152C512.079 64.152 508.58 62.2747 505.85 58.52C503.204 54.7653 501.882 49.9013 501.882 43.928C501.882 36.76 504.015 31.0853 508.282 26.904C512.634 22.6373 518.479 20.504 525.818 20.504C528.463 20.504 531.919 20.888 536.186 21.656C539.77 22.168 542.287 22.5093 543.738 22.68L544.634 23.704L543.61 25.24C543.183 25.752 542.884 26.264 542.714 26.776C542.628 27.2027 542.586 27.7573 542.586 28.44V69.784C542.586 72.4293 542.756 74.52 543.098 76.056C543.524 77.6773 544.207 79.1707 545.146 80.536L546.17 81.816L545.146 83.096H525.178L524.282 80.92L526.074 80.536C528.207 80.1093 529.572 79.512 530.17 78.744C530.767 78.0613 531.066 76.696 531.066 74.648V56.728ZM514.682 42.392C514.682 47.4267 515.364 51.3093 516.73 54.04C518.18 56.6853 520.271 58.008 523.002 58.008C526.33 58.008 528.975 56.216 530.938 52.632V24.6C528.975 23.832 527.098 23.448 525.306 23.448C521.807 23.448 519.162 25.0693 517.37 28.312C515.578 31.4693 514.682 36.1627 514.682 42.392ZM585.117 51.352C583.922 55.1067 581.831 58.1787 578.845 60.568C575.943 62.9573 572.829 64.152 569.501 64.152C565.746 64.152 562.973 62.9573 561.181 60.568C559.389 58.1787 558.493 54.5093 558.493 49.56V28.696C558.493 27.5013 557.938 26.904 556.829 26.904H552.861L552.477 25.496C554.183 24.0453 556.317 22.8507 558.877 21.912C561.437 20.9733 563.954 20.504 566.429 20.504C567.538 20.504 568.391 20.76 568.989 21.272C569.671 21.784 570.013 22.4667 570.013 23.32V48.92C570.013 51.8213 570.439 54.0827 571.293 55.704C572.146 57.24 573.341 58.008 574.877 58.008C578.034 58.008 580.551 56.088 582.429 52.248C584.391 48.3227 585.373 43.2453 585.373 37.016C585.373 33.688 585.117 31.128 584.604 29.336C584.178 27.4587 583.367 25.8373 582.173 24.472L581.021 23.064L582.045 21.912L596.765 20.76V55.704C596.765 58.264 597.533 59.544 599.069 59.544C600.69 59.544 602.269 58.904 603.805 57.624L604.829 58.904C601.842 62.4027 598.13 64.152 593.693 64.152C590.45 64.152 588.189 63.2133 586.909 61.336C585.714 59.4587 585.117 56.1307 585.117 51.352ZM633.08 59.928C635.554 59.928 637.73 59.5013 639.608 58.648C641.485 57.7093 643.32 56.1733 645.112 54.04L646.648 55.192C644.685 58.008 642.168 60.2267 639.096 61.848C636.109 63.384 632.824 64.152 629.24 64.152C625.314 64.152 621.773 63.2133 618.616 61.336C615.544 59.4587 613.112 56.8987 611.32 53.656C609.528 50.328 608.632 46.5733 608.632 42.392C608.632 35.736 610.637 30.4453 614.648 26.52C618.744 22.5093 624.162 20.504 630.904 20.504C635.682 20.504 639.565 21.656 642.552 23.96C645.624 26.1787 647.16 29.08 647.16 32.664C647.16 36.76 645.41 40.0453 641.912 42.52C638.498 44.9093 633.805 46.104 627.832 46.104C625.442 46.104 623.266 45.9333 621.304 45.592C621.73 50.0293 623.01 53.528 625.144 56.088C627.277 58.648 629.922 59.928 633.08 59.928ZM629.496 23.576C626.85 23.576 624.76 25.1973 623.224 28.44C621.773 31.5973 621.048 36.0347 621.048 41.752V43.8C621.986 43.8 623.138 43.7147 624.503 43.544C628.088 43.1173 630.818 41.9653 632.696 40.088C634.658 38.1253 635.64 35.5653 635.64 32.408C635.64 29.848 635.042 27.7573 633.848 26.136C632.738 24.4293 631.288 23.576 629.496 23.576ZM169.642 124.768C169.642 127.584 168.788 129.803 167.082 131.424C165.375 133.045 163.284 133.856 160.81 133.856C158.847 133.856 157.055 133.344 155.434 132.32C157.311 130.613 158.25 128.224 158.25 125.152C158.25 122.677 157.738 120.672 156.714 119.136C155.69 117.515 154.196 116.704 152.234 116.704C150.015 116.704 148.18 118.453 146.73 121.952C145.364 125.365 144.682 129.845 144.682 135.392C144.682 140.683 145.663 144.949 147.626 148.192C149.674 151.349 152.532 152.928 156.202 152.928C158.762 152.928 160.938 152.459 162.729 151.52C164.607 150.581 166.356 149.216 167.978 147.424L169.514 148.448C167.722 151.008 165.375 153.099 162.474 154.72C159.572 156.341 156.202 157.152 152.362 157.152C146.388 157.152 141.482 155.147 137.642 151.136C133.802 147.125 131.882 141.963 131.882 135.648C131.882 128.907 133.887 123.531 137.898 119.52C141.908 115.509 147.242 113.504 153.898 113.504C158.591 113.504 162.388 114.571 165.29 116.704C168.191 118.752 169.642 121.44 169.642 124.768ZM174.882 135.392C174.882 128.651 176.802 123.317 180.642 119.392C184.567 115.467 189.858 113.504 196.514 113.504C203.17 113.504 208.46 115.509 212.386 119.52C216.311 123.445 218.274 128.736 218.274 135.392C218.274 142.048 216.311 147.339 212.386 151.264C208.46 155.189 203.17 157.152 196.514 157.152C189.858 157.152 184.567 155.189 180.642 151.264C176.802 147.339 174.882 142.048 174.882 135.392ZM205.346 135.648C205.346 129.931 204.535 125.28 202.914 121.696C201.292 118.027 199.244 116.192 196.77 116.192C194.039 116.192 191.82 117.984 190.114 121.568C188.407 125.067 187.554 129.675 187.554 135.392C187.554 141.195 188.322 145.803 189.858 149.216C191.479 152.629 193.612 154.336 196.258 154.336C198.903 154.336 201.079 152.629 202.786 149.216C204.492 145.717 205.346 141.195 205.346 135.648ZM268.676 148.704C268.676 151.264 269.486 152.544 271.108 152.544C272.729 152.544 274.308 151.904 275.844 150.624L276.868 151.904C273.71 155.403 269.998 157.152 265.732 157.152C262.66 157.152 260.441 156.384 259.076 154.848C257.796 153.227 257.156 150.624 257.156 147.04V127.456C257.156 122.507 255.577 120.032 252.42 120.032C249.348 120.032 246.83 122.123 244.868 126.304C242.99 130.485 242.052 135.947 242.052 142.688C242.052 145.248 242.265 147.339 242.692 148.96C243.118 150.496 243.801 151.989 244.74 153.44L245.764 154.72L244.74 156H226.18L225.411 153.824L227.204 153.44C228.569 153.099 229.465 152.587 229.892 151.904C230.318 151.136 230.532 149.685 230.532 147.552V122.592C230.532 120.971 229.977 120.16 228.868 120.16H224.772L224.388 118.752C226.094 117.301 228.228 116.107 230.788 115.168C233.348 114.229 235.908 113.76 238.468 113.76C239.577 113.76 240.43 114.016 241.028 114.528C241.71 115.04 242.052 115.723 242.052 116.576V127.584C243.246 123.573 245.38 120.245 248.452 117.6C251.524 114.869 254.766 113.504 258.18 113.504C261.849 113.504 264.494 114.699 266.116 117.088C267.822 119.477 268.676 123.275 268.676 128.48V148.704ZM297.016 147.552C297.016 149.6 297.272 151.008 297.784 151.776C298.381 152.459 299.704 153.013 301.752 153.44L303.416 153.824L302.648 156H282.68L281.656 154.72L282.68 153.44C283.704 152.075 284.386 150.624 284.728 149.088C285.154 147.467 285.368 145.291 285.368 142.56V119.904H278.84C278.84 118.453 278.925 117.515 279.096 117.088C279.266 116.661 279.778 116.32 280.632 116.064L285.368 114.912C285.368 107.573 286.946 101.941 290.104 98.016C293.346 94.0907 297.954 92.128 303.928 92.128C307.682 92.128 310.712 92.9387 313.016 94.56C315.405 96.1813 316.6 98.3147 316.6 100.96C316.6 103.264 315.917 105.141 314.552 106.592C313.186 107.957 311.394 108.64 309.176 108.64C307.469 108.64 305.89 108.299 304.44 107.616C305.976 106.336 306.744 104.416 306.744 101.856C306.744 99.808 306.36 98.1867 305.592 96.992C304.824 95.7973 303.757 95.2 302.392 95.2C300.685 95.2 299.362 96.096 298.424 97.888C297.485 99.68 297.016 102.197 297.016 105.44V114.912H306.36C306.36 117.301 305.72 118.965 304.44 119.904H297.016V147.552ZM333.955 152.928C336.429 152.928 338.605 152.501 340.483 151.648C342.36 150.709 344.195 149.173 345.987 147.04L347.523 148.192C345.56 151.008 343.043 153.227 339.971 154.848C336.984 156.384 333.699 157.152 330.115 157.152C326.189 157.152 322.648 156.213 319.491 154.336C316.419 152.459 313.987 149.899 312.195 146.656C310.403 143.328 309.507 139.573 309.507 135.392C309.507 128.736 311.512 123.445 315.523 119.52C319.619 115.509 325.037 113.504 331.779 113.504C336.557 113.504 340.44 114.656 343.427 116.96C346.499 119.179 348.035 122.08 348.035 125.664C348.035 129.76 346.285 133.045 342.787 135.52C339.373 137.909 334.68 139.104 328.707 139.104C326.317 139.104 324.141 138.933 322.179 138.592C322.605 143.029 323.885 146.528 326.019 149.088C328.152 151.648 330.797 152.928 333.955 152.928ZM330.371 116.576C327.725 116.576 325.635 118.197 324.099 121.44C322.648 124.597 321.923 129.035 321.923 134.752V136.8C322.861 136.8 324.013 136.715 325.378 136.544C328.963 136.117 331.693 134.965 333.571 133.088C335.533 131.125 336.515 128.565 336.515 125.408C336.515 122.848 335.917 120.757 334.723 119.136C333.613 117.429 332.163 116.576 330.371 116.576ZM366.304 122.208C366.304 124.341 367.114 126.091 368.736 127.456C370.442 128.736 373.002 130.187 376.416 131.808C379.232 133.173 381.408 134.368 382.944 135.392C384.48 136.331 385.802 137.611 386.912 139.232C388.106 140.853 388.704 142.773 388.704 144.992C388.704 148.661 386.954 151.605 383.456 153.824C380.042 156.043 375.434 157.152 369.632 157.152C365.28 157.152 361.696 156.384 358.88 154.848C356.064 153.227 354.656 151.136 354.656 148.576C354.656 146.869 355.296 145.461 356.576 144.352C357.856 143.157 359.434 142.56 361.312 142.56C362.762 142.56 364.213 142.859 365.664 143.456C364.213 144.565 363.488 146.357 363.488 148.832C363.488 150.539 364.085 151.861 365.28 152.8C366.474 153.739 367.925 154.208 369.632 154.208C371.594 154.208 373.258 153.696 374.624 152.672C376.074 151.648 376.8 150.197 376.8 148.32C376.8 146.528 376.074 145.12 374.624 144.096C373.258 142.987 371.082 141.707 368.096 140.256C365.365 138.976 363.146 137.824 361.44 136.8C359.818 135.691 358.41 134.24 357.216 132.448C356.021 130.656 355.424 128.48 355.424 125.92C355.424 122.08 357.045 119.051 360.288 116.832C363.53 114.613 367.626 113.504 372.576 113.504C376.928 113.504 380.469 114.315 383.2 115.936C386.016 117.557 387.424 119.648 387.424 122.208C387.424 124.171 386.826 125.621 385.632 126.56C384.437 127.499 382.901 127.968 381.024 127.968C379.232 127.968 377.653 127.584 376.288 126.816C377.824 125.365 378.592 123.531 378.592 121.312C378.592 119.861 378.037 118.709 376.928 117.856C375.818 116.917 374.368 116.448 372.576 116.448C370.613 116.448 369.077 117.003 367.968 118.112C366.858 119.221 366.304 120.587 366.304 122.208ZM408.179 122.208C408.179 124.341 408.989 126.091 410.611 127.456C412.317 128.736 414.877 130.187 418.291 131.808C421.107 133.173 423.283 134.368 424.819 135.392C426.355 136.331 427.677 137.611 428.787 139.232C429.981 140.853 430.579 142.773 430.579 144.992C430.579 148.661 428.829 151.605 425.331 153.824C421.917 156.043 417.309 157.152 411.507 157.152C407.155 157.152 403.571 156.384 400.755 154.848C397.939 153.227 396.531 151.136 396.531 148.576C396.531 146.869 397.171 145.461 398.451 144.352C399.731 143.157 401.309 142.56 403.187 142.56C404.637 142.56 406.088 142.859 407.539 143.456C406.088 144.565 405.363 146.357 405.363 148.832C405.363 150.539 405.96 151.861 407.155 152.8C408.349 153.739 409.8 154.208 411.507 154.208C413.469 154.208 415.133 153.696 416.499 152.672C417.949 151.648 418.675 150.197 418.675 148.32C418.675 146.528 417.949 145.12 416.499 144.096C415.133 142.987 412.957 141.707 409.971 140.256C407.24 138.976 405.021 137.824 403.315 136.8C401.693 135.691 400.285 134.24 399.091 132.448C397.896 130.656 397.299 128.48 397.299 125.92C397.299 122.08 398.92 119.051 402.163 116.832C405.405 114.613 409.501 113.504 414.451 113.504C418.803 113.504 422.344 114.315 425.075 115.936C427.891 117.557 429.299 119.648 429.299 122.208C429.299 124.171 428.701 125.621 427.507 126.56C426.312 127.499 424.776 127.968 422.899 127.968C421.107 127.968 419.528 127.584 418.163 126.816C419.699 125.365 420.467 123.531 420.467 121.312C420.467 119.861 419.912 118.709 418.803 117.856C417.693 116.917 416.243 116.448 414.451 116.448C412.488 116.448 410.952 117.003 409.843 118.112C408.733 119.221 408.179 120.587 408.179 122.208ZM452.102 127.712C450.31 128.736 448.176 129.248 445.702 129.248C443.91 129.248 442.502 128.736 441.478 127.712C440.454 126.603 439.942 125.067 439.942 123.104C439.942 120.203 441.35 117.899 444.166 116.192C447.067 114.4 450.822 113.504 455.43 113.504C460.891 113.504 465.158 114.699 468.229 117.088C471.387 119.477 472.966 122.72 472.966 126.816V148.96C472.966 151.349 473.819 152.544 475.526 152.544C477.147 152.544 478.726 151.904 480.262 150.624L481.286 151.904C478.128 155.403 474.374 157.152 470.022 157.152C467.462 157.152 465.499 156.512 464.134 155.232C462.854 153.952 462.086 151.947 461.83 149.216H461.318C459.952 151.691 458.118 153.653 455.814 155.104C453.595 156.469 451.035 157.152 448.134 157.152C444.891 157.152 442.288 156.171 440.326 154.208C438.363 152.16 437.382 149.515 437.382 146.272C437.382 142.603 439.131 139.701 442.63 137.568C446.128 135.435 450.864 134.368 456.838 134.368C457.947 134.368 459.526 134.453 461.574 134.624V128.224C461.574 124.043 461.062 121.056 460.038 119.264C459.014 117.387 457.35 116.448 455.046 116.448C453.424 116.448 452.144 116.96 451.206 117.984C450.267 119.008 449.798 120.331 449.798 121.952C449.798 124.512 450.566 126.432 452.102 127.712ZM454.022 150.752C459.056 150.752 461.574 146.187 461.574 137.056C457.307 137.056 454.107 137.781 451.974 139.232C449.84 140.597 448.774 142.56 448.774 145.12C448.774 146.827 449.243 148.192 450.182 149.216C451.12 150.24 452.4 150.752 454.022 150.752ZM512.036 113.504C514.766 113.504 516.985 114.315 518.692 115.936C520.398 117.472 521.252 119.477 521.252 121.952C521.252 124.256 520.569 126.133 519.204 127.584C517.838 128.949 516.046 129.632 513.828 129.632C512.121 129.632 510.542 129.291 509.092 128.608C510.628 127.328 511.396 125.408 511.396 122.848C511.396 121.653 511.14 120.715 510.628 120.032C510.116 119.349 509.433 119.008 508.58 119.008C506.532 119.008 504.825 121.099 503.46 125.28C502.094 129.376 501.412 134.496 501.412 140.64C501.412 143.797 501.582 146.315 501.924 148.192C502.35 150.069 503.033 151.819 503.972 153.44L504.996 154.72L503.972 156H485.411L484.644 153.824L486.436 153.44C487.801 153.099 488.697 152.587 489.124 151.904C489.55 151.136 489.764 149.685 489.764 147.552V122.592C489.764 120.971 489.209 120.16 488.1 120.16H484.132L483.62 118.752C485.241 117.301 487.246 116.107 489.635 115.168C492.11 114.229 494.542 113.76 496.932 113.76C498.041 113.76 498.937 114.016 499.62 114.528C500.302 115.04 500.644 115.723 500.644 116.576V125.92H501.028C502.82 117.643 506.489 113.504 512.036 113.504ZM541.653 92.896C547.626 92.896 552.447 94.2613 556.117 96.992C559.871 99.6373 561.749 103.093 561.749 107.36C561.749 110.773 560.81 113.803 558.933 116.448C557.055 119.008 554.239 122.08 550.485 125.664C547.754 128.139 545.663 130.229 544.213 131.936C542.762 133.557 541.781 135.349 541.269 137.312L540.885 138.848H539.221L535.381 134.88C540.074 130.101 543.53 125.536 545.749 121.184C547.967 116.747 549.077 112.352 549.077 108C549.077 104.075 548.437 101.003 547.157 98.784C545.877 96.5653 544.085 95.456 541.781 95.456C539.903 95.456 538.367 96.3093 537.173 98.016C535.978 99.6373 535.381 101.813 535.381 104.544C535.381 106.592 535.722 108.469 536.405 110.176C537.173 111.797 538.239 113.077 539.605 114.016L539.349 114.912C534.655 114.741 530.858 113.675 527.957 111.712C525.141 109.749 523.733 107.275 523.733 104.288C523.733 100.96 525.397 98.2293 528.725 96.096C532.138 93.9627 536.447 92.896 541.653 92.896ZM533.461 150.112C533.461 148.747 534.229 147.253 535.765 145.632C537.301 143.925 538.709 143.072 539.989 143.072C541.354 143.072 542.805 143.925 544.341 145.632C545.962 147.253 546.773 148.747 546.773 150.112C546.773 151.563 545.962 153.099 544.341 154.72C542.805 156.341 541.354 157.152 539.989 157.152C538.709 157.152 537.301 156.341 535.765 154.72C534.229 153.013 533.461 151.477 533.461 150.112Z" fill="#EAEAEA"/>
<path d="M131.054 185.65C130.03 187.122 129.294 188.626 128.846 190.162C128.462 191.698 128.27 193.682 128.27 196.114V222.898C128.27 224.242 128.558 225.362 129.134 226.258L129.998 227.41L129.134 228.37H119.15L97.8382 191.602V215.794C97.8382 218.354 98.0302 220.402 98.4142 221.938C98.8622 223.41 99.5982 224.85 100.622 226.258L101.486 227.41L100.622 228.37H90.0622L89.3902 226.642C91.0542 226.194 92.2062 225.778 92.8462 225.394C93.5502 225.01 94.0302 224.466 94.2862 223.762C94.5422 223.058 94.6702 221.938 94.6702 220.402V195.058C94.6702 192.242 94.4142 190.194 93.9022 188.914C93.3902 187.634 92.2702 186.258 90.5422 184.786L91.3102 183.538H103.79L125.198 220.594V191.506C125.198 189.586 124.782 188.242 123.95 187.474C123.182 186.706 121.55 185.97 119.054 185.266L119.63 183.538H131.054L131.918 184.594L131.054 185.65ZM137.221 212.914C137.221 207.858 138.661 203.858 141.541 200.914C144.485 197.97 148.453 196.498 153.445 196.498C158.437 196.498 162.405 198.002 165.349 201.01C168.293 203.954 169.765 207.922 169.765 212.914C169.765 217.906 168.293 221.874 165.349 224.818C162.405 227.762 158.437 229.234 153.445 229.234C148.453 229.234 144.485 227.762 141.541 224.818C138.661 221.874 137.221 217.906 137.221 212.914ZM160.069 213.106C160.069 208.818 159.461 205.33 158.245 202.642C157.029 199.89 155.493 198.514 153.637 198.514C151.589 198.514 149.925 199.858 148.645 202.546C147.365 205.17 146.725 208.626 146.725 212.914C146.725 217.266 147.301 220.722 148.453 223.282C149.669 225.842 151.269 227.122 153.253 227.122C155.237 227.122 156.869 225.842 158.149 223.282C159.429 220.658 160.069 217.266 160.069 213.106ZM157.765 180.946C160.133 181.906 161.317 183.346 161.317 185.266C161.317 187.506 159.909 189.106 157.093 190.066L149.221 192.946L147.973 191.41L157.765 180.946ZM183.662 203.026C183.662 204.626 184.27 205.938 185.486 206.962C186.766 207.922 188.686 209.01 191.246 210.226C193.358 211.25 194.99 212.146 196.142 212.914C197.294 213.618 198.286 214.578 199.118 215.794C200.014 217.01 200.462 218.45 200.462 220.114C200.462 222.866 199.15 225.074 196.526 226.738C193.966 228.402 190.51 229.234 186.158 229.234C182.894 229.234 180.206 228.658 178.094 227.506C175.982 226.29 174.926 224.722 174.926 222.802C174.926 221.522 175.406 220.466 176.366 219.634C177.326 218.738 178.51 218.29 179.918 218.29C181.006 218.29 182.094 218.514 183.182 218.962C182.094 219.794 181.55 221.138 181.55 222.994C181.55 224.274 181.998 225.266 182.894 225.97C183.79 226.674 184.878 227.026 186.158 227.026C187.63 227.026 188.878 226.642 189.902 225.874C190.99 225.106 191.534 224.018 191.534 222.61C191.534 221.266 190.99 220.21 189.902 219.442C188.878 218.61 187.246 217.65 185.006 216.562C182.958 215.602 181.294 214.738 180.014 213.97C178.798 213.138 177.742 212.05 176.846 210.706C175.95 209.362 175.502 207.73 175.502 205.81C175.502 202.93 176.718 200.658 179.15 198.994C181.582 197.33 184.654 196.498 188.366 196.498C191.63 196.498 194.286 197.106 196.334 198.322C198.446 199.538 199.502 201.106 199.502 203.026C199.502 204.498 199.054 205.586 198.158 206.29C197.262 206.994 196.11 207.346 194.702 207.346C193.358 207.346 192.174 207.058 191.15 206.482C192.302 205.394 192.878 204.018 192.878 202.354C192.878 201.266 192.462 200.402 191.63 199.762C190.798 199.058 189.71 198.706 188.366 198.706C186.894 198.706 185.742 199.122 184.91 199.954C184.078 200.786 183.662 201.81 183.662 203.026ZM232.345 229.234C229.721 229.234 227.833 228.658 226.681 227.506C225.529 226.29 224.953 224.338 224.953 221.65V201.298H220.153C220.153 200.21 220.217 199.506 220.345 199.186C220.473 198.866 220.857 198.61 221.497 198.418C223.609 197.842 225.273 196.946 226.489 195.73C227.705 194.514 228.697 192.754 229.465 190.45C229.657 189.746 229.977 189.33 230.425 189.202C230.873 189.01 231.961 188.914 233.689 188.914V197.554H241.561C241.561 198.386 241.433 199.154 241.177 199.858C240.921 200.498 240.569 200.978 240.121 201.298H233.689V222.898C233.689 224.818 234.489 225.778 236.089 225.778C236.793 225.778 237.561 225.554 238.393 225.106C239.289 224.658 240.089 224.05 240.793 223.282L241.561 224.242C238.809 227.57 235.737 229.234 232.345 229.234ZM262.807 226.066C264.663 226.066 266.295 225.746 267.703 225.106C269.111 224.402 270.487 223.25 271.831 221.65L272.983 222.514C271.511 224.626 269.623 226.29 267.319 227.506C265.079 228.658 262.615 229.234 259.927 229.234C256.983 229.234 254.327 228.53 251.959 227.122C249.655 225.714 247.831 223.794 246.487 221.362C245.143 218.866 244.471 216.05 244.471 212.914C244.471 207.922 245.975 203.954 248.983 201.01C252.055 198.002 256.119 196.498 261.175 196.498C264.759 196.498 267.671 197.362 269.911 199.09C272.215 200.754 273.367 202.93 273.367 205.618C273.367 208.69 272.055 211.154 269.431 213.01C266.871 214.802 263.351 215.698 258.871 215.698C257.079 215.698 255.447 215.57 253.975 215.314C254.295 218.642 255.255 221.266 256.855 223.186C258.455 225.106 260.439 226.066 262.807 226.066ZM260.119 198.802C258.135 198.802 256.567 200.018 255.415 202.45C254.327 204.818 253.783 208.146 253.783 212.434V213.97C254.487 213.97 255.351 213.906 256.375 213.778C259.063 213.458 261.111 212.594 262.519 211.186C263.991 209.714 264.727 207.794 264.727 205.426C264.727 203.506 264.279 201.938 263.383 200.722C262.551 199.442 261.463 198.802 260.119 198.802ZM304.729 207.154C303.385 207.922 301.785 208.306 299.929 208.306C298.585 208.306 297.529 207.922 296.761 207.154C295.993 206.322 295.609 205.17 295.609 203.698C295.609 201.522 296.665 199.794 298.777 198.514C300.953 197.17 303.769 196.498 307.225 196.498C311.321 196.498 314.521 197.394 316.825 199.186C319.193 200.978 320.377 203.41 320.377 206.482V223.09C320.377 224.882 321.017 225.778 322.297 225.778C323.513 225.778 324.697 225.298 325.849 224.338L326.617 225.298C324.249 227.922 321.433 229.234 318.169 229.234C316.249 229.234 314.777 228.754 313.753 227.794C312.793 226.834 312.217 225.33 312.025 223.282H311.641C310.617 225.138 309.241 226.61 307.513 227.698C305.849 228.722 303.929 229.234 301.753 229.234C299.321 229.234 297.369 228.498 295.897 227.026C294.425 225.49 293.689 223.506 293.689 221.074C293.689 218.322 295.001 216.146 297.625 214.546C300.249 212.946 303.801 212.146 308.281 212.146C309.113 212.146 310.297 212.21 311.833 212.338V207.538C311.833 204.402 311.449 202.162 310.681 200.818C309.913 199.41 308.665 198.706 306.937 198.706C305.721 198.706 304.761 199.09 304.057 199.858C303.353 200.626 303.001 201.618 303.001 202.834C303.001 204.754 303.577 206.194 304.729 207.154ZM306.169 224.434C309.945 224.434 311.833 221.01 311.833 214.162C308.633 214.162 306.233 214.706 304.633 215.794C303.033 216.818 302.233 218.29 302.233 220.21C302.233 221.49 302.585 222.514 303.289 223.282C303.993 224.05 304.953 224.434 306.169 224.434ZM318.096 237.682C318.096 235.954 318.608 234.546 319.632 233.458C320.656 232.434 322 231.922 323.664 231.922C324.88 231.922 326.064 232.178 327.216 232.69C326.64 233.202 326.224 233.874 325.968 234.706C325.648 235.602 325.488 236.53 325.488 237.49C325.488 238.834 325.744 239.922 326.256 240.754C326.768 241.65 327.568 242.098 328.656 242.098C330.96 242.098 332.112 239.986 332.112 235.762V202.642C332.112 201.746 331.696 201.298 330.864 201.298H327.888L327.6 200.242C328.816 199.218 330.416 198.354 332.4 197.65C334.384 196.882 336.304 196.498 338.16 196.498C338.992 196.498 339.664 196.69 340.176 197.074C340.688 197.458 340.944 197.97 340.944 198.61V228.37C340.944 233.49 339.792 237.426 337.488 240.178C335.184 242.93 332.048 244.306 328.08 244.306C325.136 244.306 322.736 243.698 320.88 242.482C319.024 241.266 318.096 239.666 318.096 237.682ZM330.96 187.282C330.96 186.13 331.6 184.85 332.88 183.442C334.16 182.034 335.344 181.33 336.432 181.33C337.584 181.33 338.8 182.034 340.08 183.442C341.424 184.85 342.096 186.13 342.096 187.282C342.096 188.498 341.424 189.81 340.08 191.218C338.8 192.562 337.584 193.234 336.432 193.234C335.344 193.234 334.16 192.562 332.88 191.218C331.6 189.81 330.96 188.498 330.96 187.282ZM371.209 219.634C370.313 222.45 368.745 224.754 366.505 226.546C364.329 228.338 361.993 229.234 359.497 229.234C356.681 229.234 354.601 228.338 353.257 226.546C351.913 224.754 351.241 222.002 351.241 218.29V202.642C351.241 201.746 350.825 201.298 349.993 201.298H347.017L346.729 200.242C348.009 199.154 349.609 198.258 351.529 197.554C353.449 196.85 355.337 196.498 357.193 196.498C358.025 196.498 358.665 196.69 359.113 197.074C359.625 197.458 359.881 197.97 359.881 198.61V217.81C359.881 219.986 360.201 221.682 360.841 222.898C361.481 224.05 362.377 224.626 363.529 224.626C365.897 224.626 367.785 223.186 369.193 220.306C370.665 217.362 371.401 213.554 371.401 208.882C371.401 206.386 371.209 204.466 370.825 203.122C370.505 201.714 369.897 200.498 369.001 199.474L368.137 198.418L368.905 197.554L379.945 196.69V222.898C379.945 224.818 380.521 225.778 381.673 225.778C382.889 225.778 384.073 225.298 385.225 224.338L385.993 225.298C383.753 227.922 380.969 229.234 377.641 229.234C375.209 229.234 373.513 228.53 372.553 227.122C371.657 225.714 371.209 223.218 371.209 219.634ZM425.518 225.298C423.15 227.922 420.366 229.234 417.166 229.234C415.182 229.234 413.71 228.818 412.75 227.986C411.79 227.09 411.15 225.65 410.83 223.666C409.166 225.586 407.438 226.994 405.646 227.89C403.854 228.786 401.87 229.234 399.694 229.234C396.494 229.234 393.87 227.826 391.822 225.01C389.838 222.194 388.846 218.546 388.846 214.066C388.846 208.69 390.254 204.434 393.07 201.298C395.886 198.098 399.726 196.498 404.59 196.498C406.83 196.498 408.878 197.01 410.734 198.034V187.378C410.734 186.482 410.318 186.034 409.486 186.034H406.222L405.838 185.074C407.118 183.922 408.75 183.026 410.734 182.386C412.718 181.682 414.67 181.33 416.59 181.33C417.422 181.33 418.094 181.522 418.606 181.906C419.118 182.226 419.374 182.706 419.374 183.346V222.898C419.374 224.818 419.982 225.778 421.198 225.778C422.414 225.778 423.598 225.298 424.75 224.338L425.518 225.298ZM404.686 224.626C407.118 224.626 409.134 223.282 410.734 220.594V199.954C409.454 199.314 408.046 198.994 406.51 198.994C401.134 198.994 398.446 203.634 398.446 212.914C398.446 216.69 398.958 219.602 399.982 221.65C401.07 223.634 402.638 224.626 404.686 224.626ZM439.073 207.154C437.729 207.922 436.129 208.306 434.273 208.306C432.929 208.306 431.873 207.922 431.105 207.154C430.337 206.322 429.953 205.17 429.953 203.698C429.953 201.522 431.009 199.794 433.121 198.514C435.297 197.17 438.113 196.498 441.569 196.498C445.665 196.498 448.865 197.394 451.169 199.186C453.537 200.978 454.721 203.41 454.721 206.482V223.09C454.721 224.882 455.361 225.778 456.641 225.778C457.857 225.778 459.041 225.298 460.193 224.338L460.961 225.298C458.593 227.922 455.777 229.234 452.513 229.234C450.593 229.234 449.121 228.754 448.097 227.794C447.137 226.834 446.561 225.33 446.369 223.282H445.985C444.961 225.138 443.585 226.61 441.857 227.698C440.193 228.722 438.273 229.234 436.097 229.234C433.665 229.234 431.713 228.498 430.241 227.026C428.769 225.49 428.033 223.506 428.033 221.074C428.033 218.322 429.345 216.146 431.969 214.546C434.593 212.946 438.145 212.146 442.625 212.146C443.457 212.146 444.641 212.21 446.177 212.338V207.538C446.177 204.402 445.793 202.162 445.025 200.818C444.257 199.41 443.009 198.706 441.281 198.706C440.065 198.706 439.105 199.09 438.401 199.858C437.697 200.626 437.345 201.618 437.345 202.834C437.345 204.754 437.921 206.194 439.073 207.154ZM440.513 224.434C444.289 224.434 446.177 221.01 446.177 214.162C442.977 214.162 440.577 214.706 438.977 215.794C437.377 216.818 436.577 218.29 436.577 220.21C436.577 221.49 436.929 222.514 437.633 223.282C438.337 224.05 439.297 224.434 440.513 224.434ZM493.24 199.09C494.456 200.754 495.096 203.41 495.16 207.058H495.352C496.248 203.986 497.72 201.458 499.768 199.474C501.816 197.49 503.992 196.498 506.296 196.498C509.048 196.498 511.032 197.426 512.248 199.282C513.528 201.074 514.168 203.89 514.168 207.73V222.898C514.168 224.818 514.776 225.778 515.992 225.778C517.208 225.778 518.392 225.298 519.544 224.338L520.312 225.298C517.944 227.922 515.16 229.234 511.96 229.234C509.592 229.234 507.928 228.626 506.968 227.41C506.008 226.13 505.528 223.922 505.528 220.786V206.962C505.528 203.25 504.312 201.394 501.88 201.394C499.832 201.394 498.232 203.122 497.08 206.578C495.928 209.97 495.352 213.906 495.352 218.386C495.416 220.37 495.576 221.938 495.832 223.09C496.152 224.242 496.664 225.362 497.368 226.45L498.136 227.41L497.368 228.37H486.712V206.962C486.712 203.25 485.496 201.394 483.064 201.394C481.016 201.394 479.416 203.122 478.264 206.578C477.112 209.97 476.536 213.906 476.536 218.386C476.536 220.37 476.664 221.938 476.92 223.09C477.24 224.242 477.784 225.362 478.552 226.45L479.32 227.41L478.552 228.37H464.632L464.056 226.738L465.4 226.45C466.424 226.194 467.096 225.81 467.416 225.298C467.736 224.722 467.896 223.634 467.896 222.034V203.314C467.896 202.354 467.48 201.874 466.648 201.874H463.576L463.288 200.914C464.568 199.826 466.168 198.93 468.088 198.226C470.008 197.522 471.928 197.17 473.848 197.17C474.68 197.17 475.32 197.362 475.768 197.746C476.28 198.066 476.536 198.546 476.536 199.186V207.058C477.368 204.114 478.776 201.618 480.76 199.57C482.744 197.522 484.984 196.498 487.48 196.498C490.104 196.498 492.024 197.362 493.24 199.09ZM523.096 212.914C523.096 207.858 524.536 203.858 527.416 200.914C530.36 197.97 534.328 196.498 539.32 196.498C544.312 196.498 548.28 198.002 551.224 201.01C554.168 203.954 555.64 207.922 555.64 212.914C555.64 217.906 554.168 221.874 551.224 224.818C548.28 227.762 544.312 229.234 539.32 229.234C534.328 229.234 530.36 227.762 527.416 224.818C524.536 221.874 523.096 217.906 523.096 212.914ZM545.944 213.106C545.944 208.818 545.336 205.33 544.12 202.642C542.904 199.89 541.368 198.514 539.512 198.514C537.464 198.514 535.8 199.858 534.52 202.546C533.24 205.17 532.6 208.626 532.6 212.914C532.6 217.266 533.176 220.722 534.328 223.282C535.544 225.842 537.144 227.122 539.128 227.122C541.112 227.122 542.744 225.842 544.024 223.282C545.304 220.658 545.944 217.266 545.944 213.106ZM569.537 203.026C569.537 204.626 570.145 205.938 571.361 206.962C572.641 207.922 574.561 209.01 577.121 210.226C579.233 211.25 580.865 212.146 582.017 212.914C583.169 213.618 584.161 214.578 584.993 215.794C585.889 217.01 586.337 218.45 586.337 220.114C586.337 222.866 585.025 225.074 582.401 226.738C579.841 228.402 576.385 229.234 572.033 229.234C568.769 229.234 566.081 228.658 563.969 227.506C561.857 226.29 560.801 224.722 560.801 222.802C560.801 221.522 561.281 220.466 562.241 219.634C563.201 218.738 564.385 218.29 565.793 218.29C566.881 218.29 567.969 218.514 569.057 218.962C567.969 219.794 567.425 221.138 567.425 222.994C567.425 224.274 567.873 225.266 568.769 225.97C569.665 226.674 570.753 227.026 572.033 227.026C573.505 227.026 574.753 226.642 575.777 225.874C576.865 225.106 577.409 224.018 577.409 222.61C577.409 221.266 576.865 220.21 575.777 219.442C574.753 218.61 573.121 217.65 570.881 216.562C568.833 215.602 567.169 214.738 565.889 213.97C564.673 213.138 563.617 212.05 562.721 210.706C561.825 209.362 561.377 207.73 561.377 205.81C561.377 202.93 562.593 200.658 565.025 198.994C567.457 197.33 570.529 196.498 574.241 196.498C577.505 196.498 580.161 197.106 582.209 198.322C584.321 199.538 585.377 201.106 585.377 203.026C585.377 204.498 584.929 205.586 584.033 206.29C583.137 206.994 581.985 207.346 580.577 207.346C579.233 207.346 578.049 207.058 577.025 206.482C578.177 205.394 578.753 204.018 578.753 202.354C578.753 201.266 578.337 200.402 577.505 199.762C576.673 199.058 575.585 198.706 574.241 198.706C572.769 198.706 571.617 199.122 570.785 199.954C569.953 200.786 569.537 201.81 569.537 203.026ZM591.343 223.762C591.343 222.674 591.951 221.49 593.167 220.21C594.383 218.866 595.503 218.194 596.527 218.194C597.551 218.194 598.671 218.866 599.887 220.21C601.167 221.49 601.807 222.674 601.807 223.762C601.807 224.85 601.167 226.034 599.887 227.314C598.671 228.594 597.551 229.234 596.527 229.234C595.503 229.234 594.383 228.594 593.167 227.314C591.951 226.034 591.343 224.85 591.343 223.762Z" fill="#D42A4B"/>
</svg>
